<svg width="563" height="428" viewBox="0 0 563 428" fill="none" xmlns="http://www.w3.org/2000/svg">
<rect width="563" height="428" fill="url(#paint0_linear_205_4)"/>
<path d="M143 208.375C143 214.208 142.25 219.479 140.75 224.188C139.25 228.854 137.146 233.021 134.438 236.688C131.771 240.312 128.583 243.438 124.875 246.062C121.167 248.688 117.104 250.854 112.688 252.562C108.271 254.229 103.562 255.479 98.5625 256.312C93.6042 257.104 88.5 257.5 83.25 257.5C81.2917 257.5 79.375 257.458 77.5 257.375C75.625 257.25 73.7083 257.083 71.75 256.875L73.5 173C78.0833 171.542 82.7917 170.521 87.625 169.938C92.5 169.312 97.3333 169 102.125 169C108.083 169 113.562 169.896 118.562 171.688C123.562 173.479 127.875 176.062 131.5 179.438C135.125 182.812 137.938 186.938 139.938 191.812C141.979 196.688 143 202.208 143 208.375ZM117.375 212.375C117.417 210.125 117.167 207.958 116.625 205.875C116.125 203.792 115.271 201.958 114.062 200.375C112.896 198.75 111.396 197.458 109.562 196.5C107.729 195.5 105.542 194.958 103 194.875L100.5 233.625C103 233.25 105.271 232.438 107.312 231.188C109.354 229.896 111.104 228.333 112.562 226.5C114.062 224.625 115.208 222.562 116 220.312C116.833 218.021 117.292 215.667 117.375 213.25V212.375ZM298.938 170C297.062 184.667 295.458 199.271 294.125 213.812C292.792 228.312 291.521 242.917 290.312 257.625L264.688 259.5L265.812 249.875C264.979 250.833 264 251.667 262.875 252.375C261.792 253.083 260.625 253.667 259.375 254.125C258.125 254.542 256.833 254.854 255.5 255.062C254.167 255.229 252.896 255.292 251.688 255.25C248.854 255.208 246.188 254.667 243.688 253.625C241.188 252.542 238.896 251.125 236.812 249.375C234.729 247.583 232.854 245.521 231.188 243.188C229.521 240.812 228.104 238.333 226.938 235.75C225.812 233.125 224.938 230.458 224.312 227.75C223.729 225.042 223.438 222.417 223.438 219.875C223.438 216.125 223.5 212.25 223.625 208.25C223.792 204.208 224.062 200.167 224.438 196.125C224.812 192.083 225.292 188.083 225.875 184.125C226.5 180.167 227.271 176.375 228.188 172.75C233.271 173 238.375 173.229 243.5 173.438C248.625 173.646 253.729 173.708 258.812 173.625C257.854 177.25 256.896 180.896 255.938 184.562C255.021 188.188 254.188 191.854 253.438 195.562C252.688 199.229 252.083 202.917 251.625 206.625C251.167 210.333 250.938 214.083 250.938 217.875C250.938 218.75 250.979 220 251.062 221.625C251.146 223.25 251.354 224.854 251.688 226.438C252.062 228.021 252.604 229.417 253.312 230.625C254.062 231.792 255.104 232.375 256.438 232.375C258.021 232.375 259.438 231.708 260.688 230.375C261.938 229 263.042 227.167 264 224.875C264.958 222.583 265.771 219.938 266.438 216.938C267.146 213.938 267.729 210.812 268.188 207.562C268.688 204.271 269.083 200.958 269.375 197.625C269.667 194.292 269.875 191.167 270 188.25C270.167 185.292 270.271 182.646 270.312 180.312C270.396 177.979 270.438 176.167 270.438 174.875C270.438 174.042 270.417 173.229 270.375 172.438C270.333 171.646 270.271 170.833 270.188 170C272.896 170.083 275.583 170.146 278.25 170.188C280.917 170.229 283.604 170.25 286.312 170.25C288.396 170.25 290.479 170.25 292.562 170.25C294.688 170.208 296.812 170.125 298.938 170ZM411.938 215.625C411.938 221.583 411.75 227.521 411.375 233.438C411 239.354 410.562 245.292 410.062 251.25L377.938 252.75C378.896 245.5 379.75 238.25 380.5 231C381.292 223.708 381.688 216.417 381.688 209.125C381.688 208.667 381.667 207.875 381.625 206.75C381.583 205.583 381.5 204.271 381.375 202.812C381.292 201.354 381.146 199.854 380.938 198.312C380.771 196.729 380.521 195.292 380.188 194C379.896 192.667 379.521 191.583 379.062 190.75C378.604 189.917 378.062 189.5 377.438 189.5C375.979 189.5 374.833 190.062 374 191.188C373.167 192.271 372.542 193.583 372.125 195.125C371.75 196.667 371.521 198.25 371.438 199.875C371.354 201.458 371.312 202.75 371.312 203.75C371.312 205.5 371.354 207.25 371.438 209C371.521 210.75 371.562 212.542 371.562 214.375C371.562 220.833 371.396 227.271 371.062 233.688C370.771 240.104 370.396 246.542 369.938 253L340.312 254.125C341.271 246.875 342.104 239.646 342.812 232.438C343.562 225.188 343.938 217.917 343.938 210.625C343.938 210.167 343.917 209.333 343.875 208.125C343.833 206.917 343.75 205.562 343.625 204.062C343.542 202.562 343.396 201 343.188 199.375C342.979 197.75 342.708 196.271 342.375 194.938C342.083 193.562 341.708 192.438 341.25 191.562C340.792 190.688 340.229 190.25 339.562 190.25C338.521 190.25 337.646 190.667 336.938 191.5C336.229 192.292 335.646 193.333 335.188 194.625C334.771 195.917 334.438 197.354 334.188 198.938C333.979 200.479 333.812 202 333.688 203.5C333.604 205 333.542 206.396 333.5 207.688C333.5 208.938 333.479 209.875 333.438 210.5L332.062 256.125H300.562C301.229 249.083 301.896 242.021 302.562 234.938C303.271 227.854 303.875 220.792 304.375 213.75C304.917 206.667 305.354 199.583 305.688 192.5C306.021 185.417 306.188 178.333 306.188 171.25L335.938 170L335.812 177.25C336.729 176.083 337.771 174.917 338.938 173.75C340.104 172.542 341.333 171.479 342.625 170.562C343.958 169.604 345.354 168.833 346.812 168.25C348.312 167.667 349.854 167.375 351.438 167.375C353.479 167.375 355.312 167.542 356.938 167.875C358.562 168.167 360.021 168.688 361.312 169.438C362.646 170.188 363.812 171.229 364.812 172.562C365.812 173.854 366.688 175.5 367.438 177.5C368.771 176.042 370.104 174.688 371.438 173.438C372.812 172.188 374.25 171.125 375.75 170.25C377.25 169.333 378.875 168.625 380.625 168.125C382.375 167.625 384.312 167.375 386.438 167.375C390.479 167.375 393.917 168.167 396.75 169.75C399.583 171.292 401.938 173.354 403.812 175.938C405.729 178.521 407.208 181.479 408.25 184.812C409.333 188.146 410.146 191.604 410.688 195.188C411.229 198.771 411.562 202.333 411.688 205.875C411.854 209.417 411.938 212.667 411.938 215.625ZM490.5 200.375C490.5 204.417 489.896 208 488.688 211.125C487.479 214.25 485.812 217 483.688 219.375C481.604 221.708 479.146 223.688 476.312 225.312C473.479 226.896 470.438 228.208 467.188 229.25C463.979 230.25 460.646 231 457.188 231.5C453.729 231.958 450.333 232.208 447 232.25V258.875H417.875C417.875 254.125 417.875 249.5 417.875 245C417.917 240.5 417.938 236.042 417.938 231.625C417.979 227.167 418 222.688 418 218.188C418.042 213.688 418.083 209.042 418.125 204.25C418.208 199.167 418.229 194.083 418.188 189C418.146 183.917 418.25 178.792 418.5 173.625C423.833 172.042 429.167 170.854 434.5 170.062C439.833 169.271 445.333 168.875 451 168.875C454.208 168.875 457.417 169.146 460.625 169.688C463.833 170.188 466.896 171 469.812 172.125C472.771 173.25 475.5 174.667 478 176.375C480.542 178.042 482.729 180.042 484.562 182.375C486.396 184.708 487.833 187.375 488.875 190.375C489.958 193.375 490.5 196.708 490.5 200.375ZM462.75 202.5C462.75 199.792 461.917 197.688 460.25 196.188C458.625 194.646 456.5 193.875 453.875 193.875C453 193.875 452.083 193.958 451.125 194.125C450.208 194.25 449.333 194.417 448.5 194.625L447.75 212.875C448.333 212.958 448.896 213 449.438 213C449.979 213 450.542 213 451.125 213C452.625 213 454.062 212.75 455.438 212.25C456.854 211.75 458.104 211.042 459.188 210.125C460.271 209.167 461.125 208.062 461.75 206.812C462.417 205.521 462.75 204.083 462.75 202.5Z" fill="white"/>
<path d="M220.062 197.75C220.062 201 219.771 203.958 219.188 206.625C218.646 209.25 217.771 211.667 216.562 213.875C215.354 216.083 213.792 218.125 211.875 220C209.958 221.875 207.646 223.667 204.938 225.375L219.812 251.875L191.688 257.375L182.062 230.75L174.312 231L173.188 257H146.312C146.521 247.5 146.708 238.042 146.875 228.625C147.083 219.208 147.312 209.75 147.562 200.25C147.646 195.458 147.729 190.708 147.812 186C147.896 181.292 148.062 176.542 148.312 171.75C151.229 170.667 154.104 169.771 156.938 169.062C159.771 168.354 162.604 167.812 165.438 167.438C168.312 167.021 171.208 166.75 174.125 166.625C177.083 166.458 180.104 166.375 183.188 166.375C187.938 166.375 192.521 167.042 196.938 168.375C201.396 169.667 205.333 171.625 208.75 174.25C212.167 176.875 214.896 180.146 216.938 184.062C219.021 187.979 220.062 192.542 220.062 197.75ZM192.062 199.75C192.062 198 191.812 196.396 191.312 194.938C190.854 193.479 190.146 192.229 189.188 191.188C188.271 190.104 187.104 189.271 185.688 188.688C184.312 188.062 182.688 187.75 180.812 187.75C179.979 187.75 179.167 187.812 178.375 187.938C177.583 188.021 176.812 188.167 176.062 188.375L175.062 211.625H176.562C178.354 211.625 180.167 211.396 182 210.938C183.875 210.479 185.542 209.771 187 208.812C188.5 207.854 189.708 206.625 190.625 205.125C191.583 203.625 192.062 201.833 192.062 199.75Z" fill="#006300"/>
<defs>
<linearGradient id="paint0_linear_205_4" x1="725.5" y1="554" x2="-16.5" y2="7.85524e-05" gradientUnits="userSpaceOnUse">
<stop offset="0.0156413" stop-color="#21C09D"/>
<stop offset="0.753887" stop-color="#38EF6F"/>
</linearGradient>
</defs>
</svg>
