<svg width="725" height="162" viewBox="0 0 725 162" fill="none" xmlns="http://www.w3.org/2000/svg">
<path d="M243.96 65.488C251.213 65.488 256.995 68.0693 261.304 73.232V37.84H281.272V130H261.944V123.216C257.635 128.848 251.619 131.664 243.896 131.664C235.576 131.664 228.621 128.485 223.032 122.128C217.485 115.728 214.712 107.856 214.712 98.512C214.712 92.4107 215.971 86.8427 218.488 81.808C221.005 76.7733 224.504 72.8053 228.984 69.904C233.464 66.96 238.456 65.488 243.96 65.488ZM248.696 84.176C244.728 84.176 241.507 85.5413 239.032 88.272C236.557 91.0027 235.32 94.4373 235.32 98.576C235.32 102.715 236.557 106.149 239.032 108.88C241.507 111.611 244.728 112.976 248.696 112.976C252.621 112.976 255.843 111.632 258.36 108.944C260.877 106.213 262.136 102.757 262.136 98.576C262.136 94.3947 260.877 90.96 258.36 88.272C255.843 85.5413 252.621 84.176 248.696 84.176ZM326.01 65.488C335.823 65.488 343.951 68.624 350.394 74.896C356.879 81.168 360.122 89.0613 360.122 98.576C360.122 108.091 356.879 115.984 350.394 122.256C343.951 128.528 335.823 131.664 326.01 131.664C316.239 131.664 308.111 128.528 301.626 122.256C295.183 115.984 291.962 108.091 291.962 98.576C291.962 89.0613 295.183 81.168 301.626 74.896C308.111 68.624 316.239 65.488 326.01 65.488ZM326.01 84.176C322.085 84.176 318.842 85.52 316.282 88.208C313.722 90.896 312.442 94.352 312.442 98.576C312.442 102.8 313.722 106.256 316.282 108.944C318.842 111.632 322.085 112.976 326.01 112.976C329.978 112.976 333.242 111.632 335.802 108.944C338.362 106.256 339.642 102.8 339.642 98.576C339.642 94.352 338.362 90.896 335.802 88.208C333.242 85.52 329.978 84.176 326.01 84.176ZM390.947 67.216V130H370.915V67.216H390.947ZM372.323 39.312C374.627 37.008 377.464 35.856 380.835 35.856C384.206 35.856 387.043 37.0293 389.347 39.376C391.651 41.68 392.803 44.5173 392.803 47.888C392.803 51.2587 391.651 54.096 389.347 56.4C387.043 58.6613 384.206 59.792 380.835 59.792C377.464 59.792 374.627 58.6613 372.323 56.4C370.019 54.096 368.867 51.2587 368.867 47.888C368.867 44.4747 370.019 41.616 372.323 39.312ZM442.803 65.488C449.246 65.488 454.558 67.6 458.739 71.824C462.963 76.048 465.075 81.7013 465.075 88.784V130H445.043V95.888C445.043 92.176 444.168 89.3173 442.419 87.312C440.67 85.3067 438.238 84.304 435.123 84.304C432.179 84.304 429.747 85.328 427.827 87.376C425.907 89.3813 424.947 92.3253 424.947 96.208V130H404.915V67.216H424.115V75.088C427.955 68.688 434.184 65.488 442.803 65.488ZM504.457 65.488C511.966 65.488 517.812 68.24 521.993 73.744V67.216H541.385V123.984C541.385 134.181 538.292 142.203 532.105 148.048C525.961 153.936 517.705 156.88 507.337 156.88C501.961 156.88 496.756 156.197 491.721 154.832C486.686 153.467 482.334 151.483 478.665 148.88L485.769 132.944C491.785 137.211 498.505 139.344 505.929 139.344C510.366 139.344 514.1 138.107 517.129 135.632C520.201 133.157 521.737 129.573 521.737 124.88V120.976C517.598 126.267 511.838 128.912 504.457 128.912C496.094 128.912 489.14 125.883 483.593 119.824C478.089 113.723 475.337 106.192 475.337 97.232C475.337 88.272 478.089 80.7413 483.593 74.64C489.14 68.5387 496.094 65.488 504.457 65.488ZM509.193 83.792C505.31 83.792 502.132 85.072 499.657 87.632C497.225 90.1493 496.009 93.3493 496.009 97.232C496.009 101.072 497.225 104.272 499.657 106.832C502.132 109.392 505.31 110.672 509.193 110.672C512.948 110.672 516.02 109.413 518.409 106.896C520.798 104.336 521.993 101.115 521.993 97.232C521.993 93.3493 520.798 90.1493 518.409 87.632C516.02 85.072 512.948 83.792 509.193 83.792ZM608.215 70.928L602.647 86.544C595.138 83.344 588.247 81.7227 581.975 81.68C577.111 81.68 574.679 82.96 574.679 85.52C574.679 86.16 574.871 86.7147 575.255 87.184C575.682 87.6107 576.428 87.9947 577.495 88.336C578.604 88.6773 579.607 88.9333 580.503 89.104C581.442 89.2747 582.871 89.5093 584.791 89.808L589.399 90.512C596.14 91.536 601.239 93.6693 604.695 96.912C608.194 100.112 609.943 104.336 609.943 109.584C609.943 116.496 607.383 121.893 602.263 125.776C597.143 129.659 590.018 131.6 580.887 131.6C568.3 131.6 558.636 129.403 551.895 125.008L558.871 109.52C565.484 113.445 572.866 115.408 581.015 115.408C586.86 115.408 589.783 114.043 589.783 111.312C589.783 110.117 589.058 109.221 587.607 108.624C586.156 107.984 583.575 107.387 579.863 106.832L576.215 106.32C568.663 105.211 563.074 103.056 559.447 99.856C555.863 96.6133 554.071 92.176 554.071 86.544C554.071 79.888 556.439 74.7253 561.175 71.056C565.954 67.3867 572.631 65.552 581.207 65.552C586.242 65.552 590.679 65.9573 594.519 66.768C598.402 67.536 602.967 68.9227 608.215 70.928ZM622.46 108.368C625.233 105.637 628.455 104.272 632.124 104.272C635.793 104.272 638.972 105.637 641.66 108.368C644.391 111.056 645.756 114.213 645.756 117.84C645.756 121.552 644.391 124.795 641.66 127.568C638.972 130.299 635.793 131.664 632.124 131.664C628.455 131.664 625.233 130.299 622.46 127.568C619.729 124.795 618.364 121.552 618.364 117.84C618.364 114.213 619.729 111.056 622.46 108.368ZM659.585 108.368C662.358 105.637 665.58 104.272 669.249 104.272C672.918 104.272 676.097 105.637 678.785 108.368C681.516 111.056 682.881 114.213 682.881 117.84C682.881 121.552 681.516 124.795 678.785 127.568C676.097 130.299 672.918 131.664 669.249 131.664C665.58 131.664 662.358 130.299 659.585 127.568C656.854 124.795 655.489 121.552 655.489 117.84C655.489 114.213 656.854 111.056 659.585 108.368ZM696.71 108.368C699.483 105.637 702.705 104.272 706.374 104.272C710.043 104.272 713.222 105.637 715.91 108.368C718.641 111.056 720.006 114.213 720.006 117.84C720.006 121.552 718.641 124.795 715.91 127.568C713.222 130.299 710.043 131.664 706.374 131.664C702.705 131.664 699.483 130.299 696.71 127.568C693.979 124.795 692.614 121.552 692.614 117.84C692.614 114.213 693.979 111.056 696.71 108.368Z" fill="#66FCF1"/>
<mask id="path-2-inside-1_186_6" fill="white">
<path d="M83.968 65.488C91.1787 65.488 96.8747 67.5787 101.056 71.76C105.28 75.8987 107.392 81.5733 107.392 88.784V130H87.36V95.888C87.36 92.176 86.4853 89.3173 84.736 87.312C82.9867 85.3067 80.5333 84.304 77.376 84.304C74.432 84.304 72 85.328 70.08 87.376C68.16 89.3813 67.2 92.3253 67.2 96.208V130H47.168V95.888C47.168 92.176 46.2933 89.3173 44.544 87.312C42.7947 85.3067 40.3627 84.304 37.248 84.304C34.304 84.304 31.872 85.328 29.952 87.376C28.032 89.3813 27.072 92.3253 27.072 96.208V130H7.04V67.216H26.24V75.088C30.08 68.688 36.3093 65.488 44.928 65.488C49.0667 65.488 52.8 66.4053 56.128 68.24C59.4987 70.0747 62.144 72.656 64.064 75.984C68.16 68.9867 74.7947 65.488 83.968 65.488ZM184.853 67.216L138.517 155.728H116.629L138.133 116.176L111.701 67.216H134.677L148.949 95.44L162.965 67.216H184.853Z"/>
</mask>
<path d="M101.056 71.76L99.6418 73.1742L99.649 73.1814L99.6563 73.1886L101.056 71.76ZM107.392 130V132H109.392V130H107.392ZM87.36 130H85.36V132H87.36V130ZM84.736 87.312L86.2431 85.9973L86.2431 85.9973L84.736 87.312ZM70.08 87.376L71.5246 88.7591L71.5319 88.7516L71.5391 88.7439L70.08 87.376ZM67.2 130V132H69.2V130H67.2ZM47.168 130H45.168V132H47.168V130ZM44.544 87.312L46.0511 85.9973L46.0511 85.9973L44.544 87.312ZM29.952 87.376L31.3966 88.7591L31.4039 88.7515L31.4111 88.7439L29.952 87.376ZM27.072 130V132H29.072V130H27.072ZM7.04 130H5.04V132H7.04V130ZM7.04 67.216V65.216H5.04V67.216H7.04ZM26.24 67.216H28.24V65.216H26.24V67.216ZM26.24 75.088H24.24V82.3086L27.955 76.117L26.24 75.088ZM56.128 68.24L55.1624 69.9915L55.1719 69.9966L56.128 68.24ZM64.064 75.984L62.3316 76.9834L64.0514 79.9644L65.79 76.9944L64.064 75.984ZM83.968 67.488C90.7722 67.488 95.9149 69.4473 99.6418 73.1742L102.47 70.3458C97.8344 65.71 91.5852 63.488 83.968 63.488V67.488ZM99.6563 73.1886C103.415 76.8712 105.392 81.9849 105.392 88.784H109.392C109.392 81.1618 107.145 74.9261 102.456 70.3314L99.6563 73.1886ZM105.392 88.784V130H109.392V88.784H105.392ZM107.392 128H87.36V132H107.392V128ZM89.36 130V95.888H85.36V130H89.36ZM89.36 95.888C89.36 91.8828 88.4162 88.4884 86.2431 85.9973L83.2289 88.6267C84.5544 90.1463 85.36 92.4692 85.36 95.888H89.36ZM86.2431 85.9973C84.0426 83.4746 80.9928 82.304 77.376 82.304V86.304C80.0739 86.304 81.9308 87.1387 83.2289 88.6267L86.2431 85.9973ZM77.376 82.304C73.9095 82.304 70.9393 83.5352 68.6209 86.0081L71.5391 88.7439C73.0608 87.1208 74.9545 86.304 77.376 86.304V82.304ZM68.6354 85.9929C66.2376 88.4972 65.2 92.0171 65.2 96.208H69.2C69.2 92.6336 70.0824 90.2655 71.5246 88.7591L68.6354 85.9929ZM65.2 96.208V130H69.2V96.208H65.2ZM67.2 128H47.168V132H67.2V128ZM49.168 130V95.888H45.168V130H49.168ZM49.168 95.888C49.168 91.8828 48.2242 88.4884 46.0511 85.9973L43.0369 88.6267C44.3624 90.1463 45.168 92.4692 45.168 95.888H49.168ZM46.0511 85.9973C43.856 83.4809 40.8318 82.304 37.248 82.304V86.304C39.8935 86.304 41.7334 87.1325 43.0369 88.6267L46.0511 85.9973ZM37.248 82.304C33.7815 82.304 30.8112 83.5352 28.4929 86.0081L31.4111 88.7439C32.9328 87.1208 34.8265 86.304 37.248 86.304V82.304ZM28.5074 85.9929C26.1096 88.4972 25.072 92.0171 25.072 96.208H29.072C29.072 92.6336 29.9544 90.2655 31.3966 88.7591L28.5074 85.9929ZM25.072 96.208V130H29.072V96.208H25.072ZM27.072 128H7.04V132H27.072V128ZM9.04 130V67.216H5.04V130H9.04ZM7.04 69.216H26.24V65.216H7.04V69.216ZM24.24 67.216V75.088H28.24V67.216H24.24ZM27.955 76.117C31.3718 70.4223 36.8829 67.488 44.928 67.488V63.488C35.7358 63.488 28.7882 66.9537 24.525 74.059L27.955 76.117ZM44.928 67.488C48.7599 67.488 52.156 68.3341 55.1624 69.9915L57.0936 66.4885C53.444 64.4766 49.3735 63.488 44.928 63.488V67.488ZM55.1719 69.9966C58.2186 71.655 60.5955 73.9741 62.3316 76.9834L65.7964 74.9846C63.6925 71.3379 60.7788 68.4943 57.0841 66.4834L55.1719 69.9966ZM65.79 76.9944C69.4741 70.7008 75.393 67.488 83.968 67.488V63.488C74.1963 63.488 66.8459 67.2725 62.338 74.9736L65.79 76.9944ZM184.853 67.216L186.625 68.1436L188.157 65.216H184.853V67.216ZM138.517 155.728V157.728H139.727L140.289 156.656L138.517 155.728ZM116.629 155.728L114.872 154.773L113.265 157.728H116.629V155.728ZM138.133 116.176L139.89 117.131L140.408 116.179L139.893 115.226L138.133 116.176ZM111.701 67.216V65.216H108.348L109.941 68.1661L111.701 67.216ZM134.677 67.216L136.462 66.3135L135.907 65.216H134.677V67.216ZM148.949 95.44L147.164 96.3425L148.965 99.9041L150.74 96.3295L148.949 95.44ZM162.965 67.216V65.216H161.725L161.174 66.3264L162.965 67.216ZM183.081 66.2884L136.745 154.8L140.289 156.656L186.625 68.1436L183.081 66.2884ZM138.517 153.728H116.629V157.728H138.517V153.728ZM118.386 156.683L139.89 117.131L136.376 115.221L114.872 154.773L118.386 156.683ZM139.893 115.226L113.461 66.2659L109.941 68.1661L136.373 117.126L139.893 115.226ZM111.701 69.216H134.677V65.216H111.701V69.216ZM132.892 68.1185L147.164 96.3425L150.734 94.5375L136.462 66.3135L132.892 68.1185ZM150.74 96.3295L164.756 68.1055L161.174 66.3264L147.158 94.5504L150.74 96.3295ZM162.965 69.216H184.853V65.216H162.965V69.216Z" fill="#66FCF1" mask="url(#path-2-inside-1_186_6)"/>
</svg>
