<svg width="485" height="96" viewBox="0 0 485 96" fill="none" xmlns="http://www.w3.org/2000/svg">
<mask id="path-1-inside-1_179_3" fill="white">
<path d="M56.965 34.928L51.397 50.544C43.8877 47.344 36.997 45.7227 30.725 45.68C25.861 45.68 23.429 46.96 23.429 49.52C23.429 50.16 23.621 50.7147 24.005 51.184C24.4317 51.6107 25.1783 51.9947 26.245 52.336C27.3543 52.6773 28.357 52.9333 29.253 53.104C30.1917 53.2747 31.621 53.5093 33.541 53.808L38.149 54.512C44.8903 55.536 49.989 57.6693 53.445 60.912C56.9437 64.112 58.693 68.336 58.693 73.584C58.693 80.496 56.133 85.8933 51.013 89.776C45.893 93.6587 38.7677 95.6 29.637 95.6C17.0503 95.6 7.38633 93.4027 0.645 89.008L7.621 73.52C14.2343 77.4453 21.6157 79.408 29.765 79.408C35.6103 79.408 38.533 78.0427 38.533 75.312C38.533 74.1173 37.8077 73.2213 36.357 72.624C34.9063 71.984 32.325 71.3867 28.613 70.832L24.965 70.32C17.413 69.2107 11.8237 67.056 8.197 63.856C4.613 60.6133 2.821 56.176 2.821 50.544C2.821 43.888 5.189 38.7253 9.925 35.056C14.7037 31.3867 21.381 29.552 29.957 29.552C34.9917 29.552 39.429 29.9573 43.269 30.768C47.1517 31.536 51.717 32.9227 56.965 34.928ZM99.51 29.488C109.323 29.488 117.451 32.624 123.894 38.896C130.379 45.168 133.622 53.0613 133.622 62.576C133.622 72.0907 130.379 79.984 123.894 86.256C117.451 92.528 109.323 95.664 99.51 95.664C89.7393 95.664 81.6113 92.528 75.126 86.256C68.6833 79.984 65.462 72.0907 65.462 62.576C65.462 53.0613 68.6833 45.168 75.126 38.896C81.6113 32.624 89.7393 29.488 99.51 29.488ZM99.51 48.176C95.5847 48.176 92.342 49.52 89.782 52.208C87.222 54.896 85.942 58.352 85.942 62.576C85.942 66.8 87.222 70.256 89.782 72.944C92.342 75.632 95.5847 76.976 99.51 76.976C103.478 76.976 106.742 75.632 109.302 72.944C111.862 70.256 113.142 66.8 113.142 62.576C113.142 58.352 111.862 54.896 109.302 52.208C106.742 49.52 103.478 48.176 99.51 48.176ZM221.343 29.488C228.554 29.488 234.25 31.5787 238.431 35.76C242.655 39.8987 244.767 45.5733 244.767 52.784V94H224.735V59.888C224.735 56.176 223.86 53.3173 222.111 51.312C220.362 49.3067 217.908 48.304 214.751 48.304C211.807 48.304 209.375 49.328 207.455 51.376C205.535 53.3813 204.575 56.3253 204.575 60.208V94H184.543V59.888C184.543 56.176 183.668 53.3173 181.919 51.312C180.17 49.3067 177.738 48.304 174.623 48.304C171.679 48.304 169.247 49.328 167.327 51.376C165.407 53.3813 164.447 56.3253 164.447 60.208V94H144.415V31.216H163.615V39.088C167.455 32.688 173.684 29.488 182.303 29.488C186.442 29.488 190.175 30.4053 193.503 32.24C196.874 34.0747 199.519 36.656 201.439 39.984C205.535 32.9867 212.17 29.488 221.343 29.488ZM287.279 29.488C296.58 29.488 304.132 32.56 309.935 38.704C315.738 44.8053 318.66 52.7627 318.703 62.576C318.703 65.392 318.575 67.4613 318.319 68.784H275.759C277.38 75.4827 281.86 78.832 289.199 78.832C294.276 78.832 298.842 76.9973 302.895 73.328L315.823 85.36C308.954 92.2293 299.738 95.664 288.175 95.664C278.319 95.664 270.34 92.656 264.239 86.64C258.138 80.624 255.087 72.7307 255.087 62.96C255.087 53.0613 258.074 45.0187 264.047 38.832C270.02 32.6027 277.764 29.488 287.279 29.488ZM287.343 46.512C281.242 46.512 277.402 49.712 275.823 56.112H298.671C297.05 49.712 293.274 46.512 287.343 46.512ZM388.885 29.488C398.698 29.488 406.826 32.624 413.269 38.896C419.754 45.168 422.997 53.0613 422.997 62.576C422.997 72.0907 419.754 79.984 413.269 86.256C406.826 92.528 398.698 95.664 388.885 95.664C379.114 95.664 370.986 92.528 364.501 86.256C358.058 79.984 354.837 72.0907 354.837 62.576C354.837 53.0613 358.058 45.168 364.501 38.896C370.986 32.624 379.114 29.488 388.885 29.488ZM388.885 48.176C384.96 48.176 381.717 49.52 379.157 52.208C376.597 54.896 375.317 58.352 375.317 62.576C375.317 66.8 376.597 70.256 379.157 72.944C381.717 75.632 384.96 76.976 388.885 76.976C392.853 76.976 396.117 75.632 398.677 72.944C401.237 70.256 402.517 66.8 402.517 62.576C402.517 58.352 401.237 54.896 398.677 52.208C396.117 49.52 392.853 48.176 388.885 48.176ZM476.685 31.216V48.944H459.085V94H439.053V48.944H428.237V31.216H439.053V26.352C439.053 17.9893 441.186 11.5467 445.453 7.02399C449.72 2.45866 455.565 0.175995 462.989 0.175995C471.224 0.175995 478.285 2.39466 484.173 6.83199L475.469 21.616C471.885 19.7813 468.621 18.864 465.677 18.864C461.282 18.864 459.085 21.5093 459.085 26.8V31.216H476.685Z"/>
</mask>
<path d="M56.965 34.928L58.8488 35.5997L59.5056 33.7578L57.6789 33.0597L56.965 34.928ZM51.397 50.544L50.613 52.3839L52.5673 53.2167L53.2808 51.2157L51.397 50.544ZM30.725 45.68L30.7386 43.68H30.725V45.68ZM24.005 51.184L22.4571 52.4505L22.5203 52.5277L22.5908 52.5982L24.005 51.184ZM26.245 52.336L25.6354 54.2408L25.6461 54.2443L25.6568 54.2476L26.245 52.336ZM29.253 53.104L28.8788 55.0687L28.887 55.0702L28.8952 55.0717L29.253 53.104ZM33.541 53.808L33.2336 55.7842L33.239 55.7851L33.541 53.808ZM38.149 54.512L37.847 56.4891L37.8487 56.4893L38.149 54.512ZM53.445 60.912L52.0765 62.3705L52.0858 62.3792L52.0952 62.3878L53.445 60.912ZM51.013 89.776L52.2215 91.3696L52.2215 91.3696L51.013 89.776ZM0.645 89.008L-1.17856 88.1866L-1.88189 89.7482L-0.447212 90.6834L0.645 89.008ZM7.621 73.52L8.64182 71.8001L6.71678 70.6575L5.79744 72.6986L7.621 73.52ZM36.357 72.624L35.5497 74.4538L35.5725 74.4639L35.5955 74.4734L36.357 72.624ZM28.613 70.832L28.9086 68.854L28.8998 68.8526L28.891 68.8514L28.613 70.832ZM24.965 70.32L24.6743 72.2988L24.687 72.3006L24.965 70.32ZM8.197 63.856L6.85517 65.3391L6.86441 65.3474L6.87376 65.3557L8.197 63.856ZM9.925 35.056L8.70694 33.4697L8.70008 33.475L9.925 35.056ZM43.269 30.768L42.8559 32.7249L42.8684 32.7275L42.8809 32.73L43.269 30.768ZM55.0812 34.2563L49.5132 49.8723L53.2808 51.2157L58.8488 35.5997L55.0812 34.2563ZM52.1811 48.7041C44.4981 45.4301 37.3423 43.725 30.7386 43.68L30.7114 47.68C36.6517 47.7204 43.2773 49.2579 50.613 52.3839L52.1811 48.7041ZM30.725 43.68C28.1827 43.68 25.9682 44.0035 24.3215 44.8702C23.4686 45.3191 22.7221 45.9382 22.1954 46.7699C21.6638 47.6092 21.429 48.5504 21.429 49.52H25.429C25.429 49.2096 25.4982 49.0308 25.5746 48.9101C25.6559 48.7818 25.8214 48.6009 26.1845 48.4098C26.9698 47.9965 28.4033 47.68 30.725 47.68V43.68ZM21.429 49.52C21.429 50.5941 21.7637 51.603 22.4571 52.4505L25.5529 49.9175C25.4783 49.8263 25.429 49.7259 25.429 49.52H21.429ZM22.5908 52.5982C23.3623 53.3698 24.4831 53.8721 25.6354 54.2408L26.8546 50.4312C25.8736 50.1172 25.501 49.8516 25.4192 49.7698L22.5908 52.5982ZM25.6568 54.2476C26.8185 54.605 27.8942 54.8811 28.8788 55.0687L29.6272 51.1393C28.8198 50.9855 27.8901 50.7497 26.8332 50.4244L25.6568 54.2476ZM28.8952 55.0717C29.8601 55.2472 31.3102 55.485 33.2336 55.7842L33.8484 51.8318C31.9318 51.5336 30.5232 51.3022 29.6108 51.1363L28.8952 55.0717ZM33.239 55.7851L37.847 56.4891L38.4511 52.5349L33.8431 51.8309L33.239 55.7851ZM37.8487 56.4893C44.3577 57.478 49.0193 59.502 52.0765 62.3705L54.8135 59.4535C50.9587 55.8366 45.423 53.594 38.4494 52.5347L37.8487 56.4893ZM52.0952 62.3878C55.1328 65.1661 56.693 68.8306 56.693 73.584H60.693C60.693 67.8414 58.7545 63.0579 54.7948 59.4362L52.0952 62.3878ZM56.693 73.584C56.693 79.9251 54.3837 84.7098 49.8045 88.1824L52.2215 91.3696C57.8823 87.0768 60.693 81.0669 60.693 73.584H56.693ZM49.8045 88.1824C45.1517 91.7108 38.5098 93.6 29.637 93.6V97.6C39.0255 97.6 46.6343 95.6066 52.2215 91.3696L49.8045 88.1824ZM29.637 93.6C17.2368 93.6 8.01832 91.4272 1.73721 87.3326L-0.447212 90.6834C6.75435 95.3781 16.8639 97.6 29.637 97.6V93.6ZM2.46856 89.8294L9.44456 74.3414L5.79744 72.6986L-1.17856 88.1866L2.46856 89.8294ZM6.60018 75.2399C13.5411 79.3596 21.2787 81.408 29.765 81.408V77.408C21.9526 77.408 14.9276 75.531 8.64182 71.8001L6.60018 75.2399ZM29.765 81.408C32.7802 81.408 35.3256 81.0658 37.1875 80.196C38.1442 79.7491 38.9988 79.1266 39.613 78.2657C40.2412 77.3854 40.533 76.3737 40.533 75.312H36.533C36.533 75.6156 36.4595 75.7986 36.357 75.9423C36.2406 76.1054 35.9991 76.3362 35.4945 76.572C34.4337 77.0675 32.5952 77.408 29.765 77.408V81.408ZM40.533 75.312C40.533 74.2746 40.2055 73.3034 39.5435 72.4856C38.9078 71.7003 38.0467 71.1568 37.1185 70.7746L35.5955 74.4734C36.118 74.6885 36.3449 74.8917 36.4345 75.0024C36.4978 75.0806 36.533 75.1547 36.533 75.312H40.533ZM37.1643 70.7942C35.4435 70.035 32.6226 69.4089 28.9086 68.854L28.3174 72.81C32.0274 73.3644 34.3692 73.933 35.5497 74.4538L37.1643 70.7942ZM28.891 68.8514L25.243 68.3394L24.687 72.3006L28.335 72.8126L28.891 68.8514ZM25.2557 68.3412C17.8837 67.2583 12.7334 65.1914 9.52024 62.3563L6.87376 65.3557C10.914 68.9206 16.9423 71.163 24.6743 72.2988L25.2557 68.3412ZM9.53883 62.3729C6.44435 59.5732 4.821 55.7134 4.821 50.544H0.821C0.821 56.6386 2.78165 61.6535 6.85517 65.3391L9.53883 62.3729ZM4.821 50.544C4.821 44.428 6.96174 39.8819 11.1499 36.637L8.70008 33.475C3.41626 37.5688 0.821 43.348 0.821 50.544H4.821ZM11.1431 36.6423C15.4516 33.334 21.6401 31.552 29.957 31.552V27.552C21.1219 27.552 13.9558 29.4394 8.70695 33.4697L11.1431 36.6423ZM29.957 31.552C34.8897 31.552 39.1835 31.9496 42.8559 32.7249L43.6821 28.8111C39.6745 27.9651 35.0937 27.552 29.957 27.552V31.552ZM42.8809 32.73C46.6172 33.469 51.0688 34.816 56.2511 36.7963L57.6789 33.0597C52.3652 31.0293 47.6862 29.603 43.6571 28.806L42.8809 32.73ZM123.894 38.896L122.499 40.3291L122.504 40.3337L123.894 38.896ZM123.894 86.256L122.504 84.8183L122.499 84.8229L123.894 86.256ZM75.126 86.256L73.7309 87.6891L73.7356 87.6937L75.126 86.256ZM75.126 38.896L73.7356 37.4583L73.7309 37.4629L75.126 38.896ZM89.782 52.208L88.3337 50.8287L88.3337 50.8287L89.782 52.208ZM89.782 72.944L91.2303 71.5647L91.2303 71.5647L89.782 72.944ZM109.302 72.944L107.854 71.5647L107.854 71.5647L109.302 72.944ZM109.302 52.208L110.75 50.8287L110.75 50.8287L109.302 52.208ZM99.51 31.488C108.854 31.488 116.465 34.4555 122.499 40.3291L125.289 37.4629C118.437 30.7925 109.792 27.488 99.51 27.488V31.488ZM122.504 40.3337C128.576 46.2065 131.622 53.5703 131.622 62.576H135.622C135.622 52.5524 132.182 44.1295 125.284 37.4583L122.504 40.3337ZM131.622 62.576C131.622 71.5817 128.576 78.9455 122.504 84.8183L125.284 87.6937C132.182 81.0225 135.622 72.5996 135.622 62.576H131.622ZM122.499 84.8229C116.465 90.6965 108.854 93.664 99.51 93.664V97.664C109.792 97.664 118.437 94.3595 125.289 87.6891L122.499 84.8229ZM99.51 93.664C90.2109 93.664 82.5961 90.6981 76.5164 84.8183L73.7356 87.6937C80.6266 94.3579 89.2677 97.664 99.51 97.664V93.664ZM76.5211 84.8229C70.4896 78.9512 67.462 71.586 67.462 62.576H63.462C63.462 72.5954 66.8771 81.0168 73.7309 87.6891L76.5211 84.8229ZM67.462 62.576C67.462 53.566 70.4896 46.2008 76.5211 40.3291L73.7309 37.4629C66.8771 44.1352 63.462 52.5566 63.462 62.576H67.462ZM76.5164 40.3337C82.5961 34.4539 90.2109 31.488 99.51 31.488V27.488C89.2677 27.488 80.6266 30.7941 73.7356 37.4583L76.5164 40.3337ZM99.51 46.176C95.0725 46.176 91.2948 47.7195 88.3337 50.8287L91.2303 53.5873C93.3892 51.3205 96.0968 50.176 99.51 50.176V46.176ZM88.3337 50.8287C85.3701 53.9405 83.942 57.9149 83.942 62.576H87.942C87.942 58.7891 89.0739 55.8515 91.2303 53.5873L88.3337 50.8287ZM83.942 62.576C83.942 67.2371 85.3701 71.2115 88.3337 74.3233L91.2303 71.5647C89.0739 69.3005 87.942 66.3629 87.942 62.576H83.942ZM88.3337 74.3233C91.2948 77.4325 95.0725 78.976 99.51 78.976V74.976C96.0968 74.976 93.3892 73.8315 91.2303 71.5647L88.3337 74.3233ZM99.51 78.976C103.983 78.976 107.785 77.4372 110.75 74.3233L107.854 71.5647C105.699 73.8268 102.973 74.976 99.51 74.976V78.976ZM110.75 74.3233C113.714 71.2115 115.142 67.2371 115.142 62.576H111.142C111.142 66.3629 110.01 69.3005 107.854 71.5647L110.75 74.3233ZM115.142 62.576C115.142 57.9149 113.714 53.9405 110.75 50.8287L107.854 53.5873C110.01 55.8515 111.142 58.7891 111.142 62.576H115.142ZM110.75 50.8287C107.785 47.7148 103.983 46.176 99.51 46.176V50.176C102.973 50.176 105.699 51.3252 107.854 53.5873L110.75 50.8287ZM238.431 35.76L237.017 37.1742L237.024 37.1814L237.031 37.1886L238.431 35.76ZM244.767 94V96H246.767V94H244.767ZM224.735 94H222.735V96H224.735V94ZM222.111 51.312L223.618 49.9973L223.618 49.9973L222.111 51.312ZM207.455 51.376L208.9 52.7591L208.907 52.7516L208.914 52.7439L207.455 51.376ZM204.575 94V96H206.575V94H204.575ZM184.543 94H182.543V96H184.543V94ZM181.919 51.312L183.426 49.9973L183.426 49.9973L181.919 51.312ZM167.327 51.376L168.772 52.7591L168.779 52.7515L168.786 52.7439L167.327 51.376ZM164.447 94V96H166.447V94H164.447ZM144.415 94H142.415V96H144.415V94ZM144.415 31.216V29.216H142.415V31.216H144.415ZM163.615 31.216H165.615V29.216H163.615V31.216ZM163.615 39.088H161.615V46.3086L165.33 40.117L163.615 39.088ZM193.503 32.24L192.537 33.9915L192.547 33.9966L193.503 32.24ZM201.439 39.984L199.707 40.9834L201.426 43.9644L203.165 40.9944L201.439 39.984ZM221.343 31.488C228.147 31.488 233.29 33.4473 237.017 37.1742L239.845 34.3458C235.209 29.71 228.96 27.488 221.343 27.488V31.488ZM237.031 37.1886C240.79 40.8712 242.767 45.9849 242.767 52.784H246.767C246.767 45.1618 244.52 38.9261 239.831 34.3314L237.031 37.1886ZM242.767 52.784V94H246.767V52.784H242.767ZM244.767 92H224.735V96H244.767V92ZM226.735 94V59.888H222.735V94H226.735ZM226.735 59.888C226.735 55.8828 225.791 52.4884 223.618 49.9973L220.604 52.6267C221.929 54.1463 222.735 56.4692 222.735 59.888H226.735ZM223.618 49.9973C221.418 47.4746 218.368 46.304 214.751 46.304V50.304C217.449 50.304 219.306 51.1387 220.604 52.6267L223.618 49.9973ZM214.751 46.304C211.284 46.304 208.314 47.5352 205.996 50.0081L208.914 52.7439C210.436 51.1208 212.33 50.304 214.751 50.304V46.304ZM206.01 49.9929C203.613 52.4972 202.575 56.0171 202.575 60.208H206.575C206.575 56.6336 207.457 54.2655 208.9 52.7591L206.01 49.9929ZM202.575 60.208V94H206.575V60.208H202.575ZM204.575 92H184.543V96H204.575V92ZM186.543 94V59.888H182.543V94H186.543ZM186.543 59.888C186.543 55.8828 185.599 52.4884 183.426 49.9973L180.412 52.6267C181.737 54.1463 182.543 56.4692 182.543 59.888H186.543ZM183.426 49.9973C181.231 47.4809 178.207 46.304 174.623 46.304V50.304C177.269 50.304 179.108 51.1325 180.412 52.6267L183.426 49.9973ZM174.623 46.304C171.156 46.304 168.186 47.5352 165.868 50.0081L168.786 52.7439C170.308 51.1208 172.202 50.304 174.623 50.304V46.304ZM165.882 49.9929C163.485 52.4972 162.447 56.0171 162.447 60.208H166.447C166.447 56.6336 167.329 54.2655 168.772 52.7591L165.882 49.9929ZM162.447 60.208V94H166.447V60.208H162.447ZM164.447 92H144.415V96H164.447V92ZM146.415 94V31.216H142.415V94H146.415ZM144.415 33.216H163.615V29.216H144.415V33.216ZM161.615 31.216V39.088H165.615V31.216H161.615ZM165.33 40.117C168.747 34.4223 174.258 31.488 182.303 31.488V27.488C173.111 27.488 166.163 30.9537 161.9 38.059L165.33 40.117ZM182.303 31.488C186.135 31.488 189.531 32.3341 192.537 33.9915L194.469 30.4885C190.819 28.4766 186.748 27.488 182.303 27.488V31.488ZM192.547 33.9966C195.594 35.655 197.97 37.9741 199.707 40.9834L203.171 38.9846C201.068 35.3379 198.154 32.4943 194.459 30.4834L192.547 33.9966ZM203.165 40.9944C206.849 34.7008 212.768 31.488 221.343 31.488V27.488C211.571 27.488 204.221 31.2725 199.713 38.9736L203.165 40.9944ZM309.935 38.704L308.481 40.0773L308.486 40.0823L309.935 38.704ZM318.703 62.576L320.703 62.576L320.703 62.5673L318.703 62.576ZM318.319 68.784V70.784H319.969L320.283 69.164L318.319 68.784ZM275.759 68.784V66.784H273.217L273.815 69.2545L275.759 68.784ZM302.895 73.328L304.258 71.864L302.914 70.6133L301.553 71.8453L302.895 73.328ZM315.823 85.36L317.237 86.7742L318.703 85.3083L317.186 83.896L315.823 85.36ZM264.239 86.64L262.835 88.0641L262.835 88.0641L264.239 86.64ZM264.047 38.832L265.486 40.2212L265.491 40.2162L264.047 38.832ZM275.823 56.112L273.881 55.633L273.27 58.112H275.823V56.112ZM298.671 56.112V58.112H301.241L300.61 55.6208L298.671 56.112ZM287.279 31.488C296.091 31.488 303.096 34.3758 308.481 40.0772L311.389 37.3308C305.168 30.7442 297.069 27.488 287.279 27.488V31.488ZM308.486 40.0823C313.879 45.7534 316.662 53.1911 316.703 62.5847L320.703 62.5673C320.658 52.3343 317.596 43.8573 311.384 37.3257L308.486 40.0823ZM316.703 62.576C316.703 65.371 316.573 67.2798 316.355 68.404L320.283 69.164C320.577 67.6429 320.703 65.413 320.703 62.576H316.703ZM318.319 66.784H275.759V70.784H318.319V66.784ZM273.815 69.2545C274.709 72.9478 276.444 75.9082 279.137 77.9218C281.817 79.9253 285.232 80.832 289.199 80.832V76.832C285.827 76.832 283.333 76.064 281.533 74.7182C279.746 73.3825 278.43 71.3188 277.703 68.3135L273.815 69.2545ZM289.199 80.832C294.812 80.832 299.847 78.7851 304.237 74.8107L301.553 71.8453C297.836 75.2096 293.74 76.832 289.199 76.832V80.832ZM301.532 74.792L314.46 86.824L317.186 83.896L304.258 71.864L301.532 74.792ZM314.409 83.9458C307.985 90.3699 299.316 93.664 288.175 93.664V97.664C300.16 97.664 309.923 94.0888 317.237 86.7742L314.409 83.9458ZM288.175 93.664C278.759 93.664 271.314 90.8069 265.643 85.2159L262.835 88.0641C269.367 94.5051 277.879 97.664 288.175 97.664V93.664ZM265.643 85.2159C259.978 79.6295 257.087 72.2772 257.087 62.96H253.087C253.087 73.1841 256.298 81.6185 262.835 88.0641L265.643 85.2159ZM257.087 62.96C257.087 53.4952 259.927 45.9784 265.486 40.2212L262.608 37.4428C256.22 44.0589 253.087 52.6275 253.087 62.96H257.087ZM265.491 40.2162C271.046 34.4227 278.248 31.488 287.279 31.488V27.488C277.281 27.488 268.995 30.7826 262.603 37.4478L265.491 40.2162ZM287.343 44.512C283.931 44.512 280.96 45.414 278.607 47.3756C276.269 49.3239 274.74 52.1503 273.881 55.633L277.765 56.591C278.484 53.6737 279.665 51.7001 281.167 50.4484C282.654 49.21 284.653 48.512 287.343 48.512V44.512ZM275.823 58.112H298.671V54.112H275.823V58.112ZM300.61 55.6208C299.731 52.1502 298.212 49.3324 295.916 47.3862C293.598 45.4221 290.684 44.512 287.343 44.512V48.512C289.933 48.512 291.872 49.2019 293.33 50.4378C294.81 51.6916 295.99 53.6738 296.732 56.6032L300.61 55.6208ZM413.269 38.896L411.874 40.3291L411.879 40.3337L413.269 38.896ZM413.269 86.256L411.879 84.8183L411.874 84.8229L413.269 86.256ZM364.501 86.256L363.106 87.6891L363.111 87.6937L364.501 86.256ZM364.501 38.896L363.111 37.4583L363.106 37.4629L364.501 38.896ZM379.157 52.208L377.709 50.8287L377.709 50.8287L379.157 52.208ZM379.157 72.944L380.605 71.5647L380.605 71.5647L379.157 72.944ZM398.677 72.944L397.229 71.5647L397.229 71.5647L398.677 72.944ZM398.677 52.208L400.125 50.8287L400.125 50.8287L398.677 52.208ZM388.885 31.488C398.229 31.488 405.84 34.4555 411.874 40.3291L414.664 37.4629C407.812 30.7925 399.167 27.488 388.885 27.488V31.488ZM411.879 40.3337C417.951 46.2065 420.997 53.5703 420.997 62.576H424.997C424.997 52.5524 421.557 44.1295 414.659 37.4583L411.879 40.3337ZM420.997 62.576C420.997 71.5817 417.951 78.9455 411.879 84.8183L414.659 87.6937C421.557 81.0225 424.997 72.5996 424.997 62.576H420.997ZM411.874 84.8229C405.84 90.6965 398.229 93.664 388.885 93.664V97.664C399.167 97.664 407.812 94.3595 414.664 87.6891L411.874 84.8229ZM388.885 93.664C379.586 93.664 371.971 90.6981 365.891 84.8183L363.111 87.6937C370.002 94.3579 378.643 97.664 388.885 97.664V93.664ZM365.896 84.8229C359.865 78.9512 356.837 71.586 356.837 62.576H352.837C352.837 72.5954 356.252 81.0168 363.106 87.6891L365.896 84.8229ZM356.837 62.576C356.837 53.566 359.865 46.2008 365.896 40.3291L363.106 37.4629C356.252 44.1352 352.837 52.5566 352.837 62.576H356.837ZM365.891 40.3337C371.971 34.4539 379.586 31.488 388.885 31.488V27.488C378.643 27.488 370.002 30.7941 363.111 37.4583L365.891 40.3337ZM388.885 46.176C384.448 46.176 380.67 47.7195 377.709 50.8287L380.605 53.5873C382.764 51.3205 385.472 50.176 388.885 50.176V46.176ZM377.709 50.8287C374.745 53.9405 373.317 57.9149 373.317 62.576H377.317C377.317 58.7891 378.449 55.8515 380.605 53.5873L377.709 50.8287ZM373.317 62.576C373.317 67.2371 374.745 71.2115 377.709 74.3233L380.605 71.5647C378.449 69.3005 377.317 66.3629 377.317 62.576H373.317ZM377.709 74.3233C380.67 77.4325 384.448 78.976 388.885 78.976V74.976C385.472 74.976 382.764 73.8315 380.605 71.5647L377.709 74.3233ZM388.885 78.976C393.358 78.976 397.16 77.4372 400.125 74.3233L397.229 71.5647C395.074 73.8268 392.348 74.976 388.885 74.976V78.976ZM400.125 74.3233C403.089 71.2115 404.517 67.2371 404.517 62.576H400.517C400.517 66.3629 399.385 69.3005 397.229 71.5647L400.125 74.3233ZM404.517 62.576C404.517 57.9149 403.089 53.9405 400.125 50.8287L397.229 53.5873C399.385 55.8515 400.517 58.7891 400.517 62.576H404.517ZM400.125 50.8287C397.16 47.7148 393.358 46.176 388.885 46.176V50.176C392.348 50.176 395.074 51.3252 397.229 53.5873L400.125 50.8287ZM476.685 31.216H478.685V29.216H476.685V31.216ZM476.685 48.944V50.944H478.685V48.944H476.685ZM459.085 48.944V46.944H457.085V48.944H459.085ZM459.085 94V96H461.085V94H459.085ZM439.053 94H437.053V96H439.053V94ZM439.053 48.944H441.053V46.944H439.053V48.944ZM428.237 48.944H426.237V50.944H428.237V48.944ZM428.237 31.216V29.216H426.237V31.216H428.237ZM439.053 31.216V33.216H441.053V31.216H439.053ZM445.453 7.02399L446.908 8.39645L446.914 8.3896L445.453 7.02399ZM484.173 6.83199L485.896 7.84669L486.802 6.30883L485.377 5.23477L484.173 6.83199ZM475.469 21.616L474.558 23.3963L476.236 24.2554L477.192 22.6307L475.469 21.616ZM459.085 31.216H457.085V33.216H459.085V31.216ZM474.685 31.216V48.944H478.685V31.216H474.685ZM476.685 46.944H459.085V50.944H476.685V46.944ZM457.085 48.944V94H461.085V48.944H457.085ZM459.085 92H439.053V96H459.085V92ZM441.053 94V48.944H437.053V94H441.053ZM439.053 46.944H428.237V50.944H439.053V46.944ZM430.237 48.944V31.216H426.237V48.944H430.237ZM428.237 33.216H439.053V29.216H428.237V33.216ZM441.053 31.216V26.352H437.053V31.216H441.053ZM441.053 26.352C441.053 18.3199 443.098 12.4351 446.908 8.39643L443.998 5.65155C439.275 10.6582 437.053 17.6588 437.053 26.352H441.053ZM446.914 8.3896C450.732 4.30476 456.006 2.17599 462.989 2.17599V-1.82401C455.124 -1.82401 448.708 0.612567 443.992 5.65839L446.914 8.3896ZM462.989 2.17599C470.843 2.17599 477.469 4.28368 482.969 8.42921L485.377 5.23477C479.102 0.505641 471.605 -1.82401 462.989 -1.82401V2.17599ZM482.45 5.8173L473.746 20.6013L477.192 22.6307L485.896 7.84669L482.45 5.8173ZM476.38 19.8357C472.613 17.907 469.033 16.864 465.677 16.864V20.864C468.209 20.864 471.157 21.6556 474.558 23.3963L476.38 19.8357ZM465.677 16.864C463.064 16.864 460.774 17.6683 459.195 19.5701C457.674 21.4008 457.085 23.9274 457.085 26.8H461.085C461.085 24.3819 461.595 22.9406 462.271 22.1259C462.889 21.3824 463.896 20.864 465.677 20.864V16.864ZM457.085 26.8V31.216H461.085V26.8H457.085ZM459.085 33.216H476.685V29.216H459.085V33.216Z" fill="#66FCF1" mask="url(#path-1-inside-1_179_3)"/>
</svg>
